<?xml version="1.0" standalone="no"?>
<!DOCTYPE svg PUBLIC "-//W3C//DTD SVG 20010904//EN"
 "http://www.w3.org/TR/2001/REC-SVG-20010904/DTD/svg10.dtd">
<svg version="1.0" xmlns="http://www.w3.org/2000/svg"
 width="784.000000pt" height="156.000000pt" viewBox="0 0 784.000000 156.000000"
 preserveAspectRatio="xMidYMid meet">

<g transform="translate(0.000000,156.000000) scale(0.100000,-0.100000)"
fill="#000000" stroke="none">
<path d="M201 1411 c-64 -23 -99 -47 -129 -91 -44 -65 -45 -87 -38 -598 7
-530 6 -524 69 -591 18 -18 50 -42 72 -52 53 -24 147 -25 200 0 51 23 111 89
124 138 6 21 11 132 11 251 0 116 1 212 3 212 2 0 25 -21 52 -46 67 -65 124
-89 210 -88 81 0 158 30 214 82 18 18 35 32 38 32 2 0 3 -96 1 -213 l-2 -212
30 -55 c22 -38 46 -64 79 -85 44 -27 57 -30 131 -30 76 0 86 2 125 30 50 35
84 82 99 134 6 22 10 227 10 523 l0 486 -33 63 c-25 49 -43 70 -81 94 -44 26
-58 30 -125 30 -114 0 -163 -27 -317 -174 -119 -115 -128 -121 -167 -121 -38
0 -46 5 -122 83 -102 106 -157 150 -229 183 -76 35 -155 40 -225 15z m165 -36
c72 -21 132 -65 243 -176 56 -56 109 -101 125 -105 41 -10 101 1 135 26 49 35
92 37 122 6 15 -15 29 -40 33 -57 10 -49 7 -270 -4 -309 -32 -116 -179 -200
-297 -171 -70 18 -113 54 -233 192 -163 189 -226 235 -310 227 -27 -3 -61 -15
-79 -27 l-31 -22 0 123 c0 68 5 140 10 160 20 69 75 118 157 137 56 13 74 13
129 -4z m999 -15 c19 -12 48 -43 63 -68 l27 -47 0 -505 c0 -487 -1 -506 -20
-539 -11 -19 -37 -48 -58 -64 -80 -65 -217 -42 -275 46 l-27 40 -5 436 c-6
492 -5 486 -81 520 l-39 18 74 71 c106 101 157 124 254 117 30 -2 67 -13 87
-25z m-1089 -423 c27 -19 82 -70 122 -115 l72 -82 0 -245 c0 -222 -2 -249 -19
-283 -23 -45 -66 -87 -104 -101 -39 -15 -111 -14 -150 2 -44 19 -105 89 -111
129 -3 18 -8 167 -11 330 l-7 297 26 37 c50 73 106 83 182 31z"/>
<path d="M3770 1259 c-142 -24 -276 -124 -336 -249 -44 -91 -58 -159 -58 -280
-1 -119 13 -187 57 -280 108 -231 405 -326 653 -209 171 80 266 253 267 484 2
315 -171 520 -453 539 -41 3 -100 0 -130 -5z m155 -120 c75 -14 106 -30 165
-85 146 -136 158 -467 24 -627 -95 -113 -266 -148 -401 -82 -122 60 -192 200
-193 385 0 220 110 381 279 410 66 11 62 11 126 -1z"/>
<path d="M2156 1198 c-3 -24 -8 -63 -11 -88 -12 -99 -34 -407 -45 -610 -6
-118 -12 -232 -13 -252 l-3 -38 67 0 67 0 6 128 c25 499 37 662 46 662 12 0
180 -351 276 -573 l29 -68 59 3 58 3 65 145 c35 80 103 224 150 320 83 170 86
174 94 141 8 -40 28 -342 37 -586 l7 -170 69 -3 69 -3 -7 123 c-10 175 -43
630 -57 781 l-12 127 -63 0 -64 0 -30 -52 c-43 -74 -175 -346 -250 -516 -35
-78 -67 -139 -71 -135 -4 4 -34 69 -67 143 -98 220 -150 328 -214 448 l-61
112 -63 0 -63 0 -5 -42z"/>
<path d="M4580 725 l0 -515 65 0 65 0 0 407 0 406 21 -19 c59 -52 394 -526
526 -741 l32 -53 56 0 55 0 0 515 0 515 -65 0 -65 0 -2 -382 -3 -382 -90 135
c-107 161 -273 383 -392 525 l-87 104 -58 0 -58 0 0 -515z"/>
<path d="M5662 853 c3 -362 4 -391 23 -435 68 -159 169 -221 360 -222 143 0
204 22 286 104 46 46 62 70 80 126 22 66 23 84 27 442 l3 372 -70 0 -70 0 -3
-367 -3 -368 -29 -58 c-18 -37 -43 -69 -68 -87 -97 -70 -251 -58 -329 27 -65
69 -64 62 -67 476 l-3 377 -70 0 -70 0 3 -387z"/>
<path d="M6737 1203 c-18 -109 -67 -794 -67 -928 l0 -65 64 0 64 0 6 93 c3 50
8 150 11 222 9 228 27 460 36 469 9 10 132 -240 240 -487 l64 -147 59 2 59 3
67 151 c37 83 105 227 150 320 72 148 83 166 90 144 10 -29 27 -292 35 -525 3
-88 8 -179 11 -203 l5 -42 65 0 64 0 0 43 c0 93 -39 638 -66 920 l-7 68 -66
-3 -66 -3 -87 -170 c-48 -93 -124 -252 -169 -353 -45 -101 -85 -179 -89 -175
-4 4 -38 78 -76 163 -37 85 -111 241 -164 345 l-96 190 -65 3 -66 3 -6 -38z"/>
</g>
</svg>
